<svg xmlns="http://www.w3.org/2000/svg"  viewBox="0 0 128 128" width="128px" height="128px"><path fill="#444b54" d="M62,56c-14,0-14-14-14-20s0-20,14-20s14,14,14,20S76,56,62,56z M62,22c-5.1,0-8,2.3-8,14s2.9,14,8,14 s8-2.3,8-14S67.1,22,62,22z"/><path fill="#444b54" d="M96,56C96,56,96,56,96,56c-1.3,0-2.3-0.8-2.8-1.9l-14-34c-0.6-1.5,0.1-3.3,1.6-3.9c1.5-0.6,3.3,0.1,3.9,1.6 l11.4,27.7l13.1-27.8c0.7-1.5,2.5-2.1,4-1.4c1.5,0.7,2.1,2.5,1.4,4l-16,34C98.2,55.3,97.2,56,96,56z"/><path fill="#444b54" d="M4,111c-1.7,0-3-1.3-3-3V74c0-1.7,1.3-3,3-3s3,1.3,3,3v34C7,109.7,5.7,111,4,111z"/><path fill="#444b54" d="M28,111H16c-1.7,0-3-1.3-3-3V74c0-1.7,1.3-3,3-3h12c14,0,14,14,14,20S42,111,28,111z M19,105h9 c5.1,0,8-2.3,8-14s-2.9-14-8-14h-9V105z"/><path fill="#71c2ff" d="M90,71h-8c-1.7,0-3,1.3-3,3s1.3,3,3,3h5v31c0,1.7,1.3,3,3,3s3-1.3,3-3V74C93,72.3,91.7,71,90,71z"/><path fill="#71c2ff" d="M122.7,91.4C122.7,91.4,122.7,91.4,122.7,91.4c1.5-2.2,2.3-4.7,2.3-7.4c0-7.2-5.8-13-13-13s-13,5.8-13,13 c0,6.8,5.2,12.3,11.8,12.9l-7.2,9.2c-1,1.3-0.8,3.2,0.5,4.2c0.5,0.4,1.2,0.6,1.8,0.6c0.9,0,1.8-0.4,2.4-1.2L122.7,91.4z M112,91 c-3.9,0-7-3.1-7-7s3.1-7,7-7s7,3.1,7,7c0,1.4-0.4,2.8-1.2,3.9l-0.6,0.7C116,90.1,114.1,91,112,91z"/><path fill="#444b54" d="M67,95h-8c-1.7,0-3-1.3-3-3s1.3-3,3-3h8c1.7,0,3,1.3,3,3S68.7,95,67,95z"/><g><path fill="#444b54" d="M30,56c-6.8,0-15-3.5-15-20s8.2-20,15-20c5.5,0,10,2.2,13.1,6.4c1,1.3,0.7,3.2-0.6,4.2 c-1.3,1-3.2,0.7-4.2-0.6C36.3,23.3,33.6,22,30,22c-4.2,0-9,1.6-9,14s4.8,14,9,14c3.5,0,6.3-1.3,8.2-3.9c1-1.3,2.9-1.6,4.2-0.6 c1.3,1,1.6,2.9,0.6,4.2C40,53.8,35.5,56,30,56z"/></g></svg>